<svg width="30" height="30" viewBox="0 0 30 30" fill="none" xmlns="http://www.w3.org/2000/svg">
<g clip-path="url(#clip0_205_952)">
<path d="M7.5 6.81445C11.64 6.81445 15 10.1745 15 14.3145V15.0001H0.685664C0.308555 15.0001 0 14.6916 0 14.3145C0 10.1745 3.36 6.81445 7.5 6.81445Z" fill="#FBBB05"/>
<path d="M23.1857 7.5C23.1857 11.64 19.8257 15 15.6857 15H15V0.685664C15 0.308555 15.3086 0 15.6857 0C19.8257 0 23.1857 3.36 23.1857 7.5Z" fill="#E94335"/>
<path d="M22.5 23.1857C18.36 23.1857 15 19.8257 15 15.6857V15H29.3143C29.6914 15 30 15.3086 30 15.6857C30 19.8257 26.64 23.1857 22.5 23.1857Z" fill="#4285F4"/>
<path d="M6.81445 22.5C6.81445 18.36 10.1745 15 14.3145 15H15.0001V29.3143C15.0001 29.6914 14.6916 30 14.3145 30C10.1745 30 6.81445 26.64 6.81445 22.5Z" fill="#0F9D58"/>
</g>
<defs>
<clipPath id="clip0_205_952">
<rect width="30" height="30" fill="white"/>
</clipPath>
</defs>
</svg>
