<svg width="30" height="23" viewBox="0 0 30 23" fill="none" xmlns="http://www.w3.org/2000/svg">
<g clip-path="url(#clip0_2_1813)">
<path d="M6.8182 22.5054V10.9144L3.22348 7.62574L0 5.80078V20.4599C0 21.5917 0.916992 22.5054 2.04551 22.5054H6.8182Z" fill="#4285F4"/>
<path d="M23.1819 22.5053H27.9546C29.0865 22.5053 30.0001 21.5882 30.0001 20.4598V5.80078L26.349 7.89106L23.1819 10.9143V22.5053Z" fill="#34A853"/>
<path d="M6.81824 10.9144L6.3291 6.38543L6.81824 2.05078L15 8.18719L23.1818 2.05078L23.729 6.15141L23.1818 10.9144L15 17.0508L6.81824 10.9144Z" fill="#EA4335"/>
<path d="M23.1819 2.05121V10.9148L30.0001 5.80121V3.07391C30.0001 0.544417 27.1126 -0.897575 25.0911 0.619417L23.1819 2.05121Z" fill="#FBBC04"/>
<path d="M0 5.80127L3.13582 8.15322L6.8182 10.9149V2.05127L4.90898 0.619471C2.88398 -0.897639 0 0.544471 0 3.07385V5.80115V5.80127Z" fill="#C5221F"/>
</g>
<defs>
<clipPath id="clip0_2_1813">
<rect width="30" height="22.6172" fill="white"/>
</clipPath>
</defs>
</svg>
