<svg width="30" height="27" viewBox="0 0 30 27" fill="none" xmlns="http://www.w3.org/2000/svg">
<g clip-path="url(#clip0_205_957)">
<path d="M2.26805 22.9726L3.59109 25.2577C3.86602 25.7389 4.26117 26.117 4.72512 26.3919C6.05402 24.7051 6.97887 23.4106 7.50012 22.5086C8.02898 21.5933 8.67902 20.1614 9.45023 18.2131C7.3718 17.9395 5.7968 17.8027 4.72523 17.8027C3.69668 17.8027 2.12168 17.9395 0 18.2131C0 18.7457 0.137461 19.2784 0.412383 19.7595L2.26805 22.9726Z" fill="#0066DA"/>
<path d="M25.275 26.3919C25.7391 26.117 26.1342 25.7389 26.4091 25.2579L26.9589 24.3129L29.5879 19.7595C29.8577 19.2888 29.9998 18.7557 30.0001 18.2131C27.8662 17.9395 26.2941 17.8027 25.2837 17.8027C24.1978 17.8027 22.6257 17.9395 20.5671 18.2131C21.3292 20.172 21.9707 21.6039 22.4916 22.5086C23.0169 23.4214 23.9447 24.7157 25.275 26.3919Z" fill="#EA4335"/>
<path d="M15 8.59113C16.5375 6.7343 17.5971 5.30238 18.1787 4.29562C18.6471 3.48492 19.1626 2.19047 19.7251 0.412383C19.2612 0.137461 18.7286 0 18.1787 0H11.8213C11.2715 0 10.739 0.154688 10.2749 0.412383C10.9904 2.45168 11.5977 3.90305 12.0965 4.76637C12.6477 5.72051 13.6156 6.99539 15 8.59113Z" fill="#00832D"/>
<path d="M20.5501 18.2129H9.45034L4.72534 26.3916C5.18917 26.6666 5.72179 26.804 6.27163 26.804H23.7288C24.2787 26.804 24.8114 26.6493 25.2752 26.3915L20.5502 18.2129H20.5501Z" fill="#2684FC"/>
<path d="M15.0001 8.59074L10.2751 0.412109C9.81105 0.687031 9.4159 1.06496 9.14098 1.54613L0.412383 16.6665C0.142515 17.1372 0.00035654 17.6703 0 18.2129H9.45023L15.0001 8.59074Z" fill="#00AC47"/>
<path d="M25.2237 9.10637L20.8593 1.54613C20.5845 1.06496 20.1892 0.687031 19.7252 0.412109L15.0002 8.59086L20.55 18.213H29.9831C29.9831 17.6803 29.8457 17.1478 29.5708 16.6666L25.2237 9.10637Z" fill="#FFBA00"/>
</g>
<defs>
<clipPath id="clip0_205_957">
<rect width="30" height="26.8359" fill="white"/>
</clipPath>
</defs>
</svg>
