<svg width="30" height="30" viewBox="0 0 30 30" fill="none" xmlns="http://www.w3.org/2000/svg">
<g clip-path="url(#clip0_205_941)">
<path d="M15 0C11.0227 0 7.20469 1.58133 4.39453 4.39336C1.58148 7.20651 0.000779226 11.0217 0 15C0 18.9766 1.58203 22.7946 4.39453 25.6066C7.20469 28.4187 11.0227 30 15 30C18.9773 30 22.7953 28.4187 25.6055 25.6066C28.418 22.7946 30 18.9766 30 15C30 11.0234 28.418 7.20539 25.6055 4.39336C22.7953 1.58133 18.9773 0 15 0Z" fill="url(#paint0_linear_205_941)"/>
<path d="M6.7898 14.842C11.1632 12.937 14.0789 11.681 15.5367 11.0742C19.7039 9.3415 20.5687 9.04056 21.1336 9.03036C21.2578 9.02837 21.5343 9.05907 21.7148 9.20497C21.8648 9.32802 21.907 9.49442 21.9281 9.61126C21.9468 9.72798 21.9726 9.994 21.9515 10.2017C21.7265 12.5735 20.7492 18.3293 20.2523 20.9859C20.0437 22.11 19.6289 22.4869 19.2281 22.5237C18.3562 22.6038 17.6953 21.9481 16.8515 21.3952C15.532 20.5296 14.7867 19.991 13.5046 19.1466C12.0234 18.1706 12.9843 17.6342 13.8281 16.7576C14.0484 16.5281 17.8875 13.0371 17.9601 12.7205C17.9695 12.6809 17.9789 12.5332 17.8898 12.4554C17.8031 12.3774 17.6742 12.4041 17.5804 12.4252C17.4468 12.4552 15.3398 13.8492 11.2523 16.6071C10.6546 17.0182 10.1132 17.2186 9.62574 17.2081C9.09137 17.1966 8.06012 16.9052 7.29371 16.6563C6.35621 16.3509 5.60855 16.1895 5.67418 15.6708C5.70699 15.4008 6.07965 15.1245 6.7898 14.842Z" fill="white"/>
</g>
<defs>
<linearGradient id="paint0_linear_205_941" x1="1500" y1="0" x2="1500" y2="3000" gradientUnits="userSpaceOnUse">
<stop stop-color="#2AABEE"/>
<stop offset="1" stop-color="#229ED9"/>
</linearGradient>
<clipPath id="clip0_205_941">
<rect width="30" height="30" fill="white"/>
</clipPath>
</defs>
</svg>
