<svg width="30" height="25" viewBox="0 0 30 25" fill="none" xmlns="http://www.w3.org/2000/svg">
<g clip-path="url(#clip0_2_1831)">
<path d="M30 2.9818C28.8766 3.47946 27.685 3.80613 26.4649 3.95094C27.7358 3.18922 28.7116 1.98301 29.1711 0.54582C27.963 1.26276 26.6412 1.76788 25.2628 2.03937C24.14 0.843242 22.5405 0.0957031 20.7702 0.0957031C17.3711 0.0957031 14.6152 2.85148 14.6152 6.25039C14.6152 6.73285 14.6696 7.20254 14.7745 7.65312C9.6593 7.39637 5.12414 4.94609 2.0884 1.22234C1.55871 2.13137 1.2552 3.18875 1.2552 4.31656C1.2552 6.45195 2.34188 8.33574 3.99328 9.43953C3.01588 9.40892 2.05998 9.14493 1.20539 8.66961C1.20504 8.69539 1.20504 8.72117 1.20504 8.74707C1.20504 11.7291 3.3266 14.2168 6.14215 14.7822C5.2358 15.0287 4.28511 15.0648 3.3627 14.8877C4.14586 17.3329 6.41895 19.1123 9.11215 19.1621C7.0057 20.8128 4.35176 21.7968 1.46824 21.7968C0.971367 21.7968 0.481523 21.7677 0 21.7108C2.72379 23.4571 5.95898 24.4761 9.43477 24.4761C20.7559 24.4761 26.9466 15.0975 26.9466 6.96418C26.9466 6.69723 26.9407 6.4318 26.9288 6.16789C28.1337 5.29682 29.1737 4.21791 30 2.9818Z" fill="#55ACEE"/>
</g>
<defs>
<clipPath id="clip0_2_1831">
<rect width="30" height="24.4922" fill="white"/>
</clipPath>
</defs>
</svg>
